<?xml version="1.0" standalone="no"?>
<!DOCTYPE svg PUBLIC "-//W3C//DTD SVG 20010904//EN"
 "http://www.w3.org/TR/2001/REC-SVG-20010904/DTD/svg10.dtd">
<svg version="1.0" xmlns="http://www.w3.org/2000/svg"
 width="741.000000pt" height="741.000000pt" viewBox="0 0 741.000000 741.000000"
 preserveAspectRatio="xMidYMid meet">
<metadata>
Created by potrace 1.11, written by Peter Selinger 2001-2013
</metadata>
<g transform="translate(0.000000,741.000000) scale(0.100000,-0.100000)"
fill="#000000" stroke="none">
<path d="M4915 6929 c-481 -60 -913 -386 -1091 -823 -155 -380 -131 -770 69
-1146 76 -142 96 -202 104 -306 11 -151 -38 -277 -151 -390 -111 -110 -222
-156 -384 -155 -205 0 -379 107 -473 291 -91 179 -258 362 -444 485 -236 156
-478 228 -770 228 -240 1 -436 -46 -647 -155 -804 -412 -974 -1475 -338 -2108
485 -483 1256 -541 1810 -137 73 53 211 188 265 257 23 30 69 96 102 145 74
109 118 156 197 207 113 73 268 98 416 67 131 -26 279 -131 344 -241 61 -105
86 -236 66 -348 -15 -82 -36 -130 -105 -239 -327 -515 -236 -1201 215 -1635
193 -185 410 -299 683 -358 135 -29 406 -32 540 -5 424 85 776 346 964 713
105 205 145 369 146 594 1 275 -68 506 -219 732 -132 198 -308 354 -519 458
-206 102 -334 134 -614 155 -228 17 -291 37 -411 131 -129 101 -200 246 -200
410 0 224 135 405 364 491 29 11 102 18 251 23 283 10 437 45 636 144 586 292
873 937 694 1561 -14 50 -52 144 -85 210 -256 517 -827 817 -1415 744z"/>
</g>
</svg>
